# xmcd
#
# Track frame offsets: 
#        150
#        23317
#        34520
#        47177
#        65578
#        77613
#        94294
#        117563
#        131744
#        158387
#        169181
#        188967
#        203043
#        227913
#
# Disc length: 3475 seconds
#
# Revision: 0
# Processed by: cddbd v1.5.2PL0 Copyright (c) Steve Scherf et al.
# Submitted via: ExactAudioCopyFreeDBPlugin 1.0
#
DISCID=b30d910e
DTITLE=Various Artist - Blues Platinum Collection [CD1)
DYEAR=2007
DGENRE=Blues
TTITLE0=Muddy Waters - Manish Boy
TTITLE1=John Lee Hooker - Boom Boom
TTITLE2=Elmore James - The Sky Is Crying
TTITLE3=Mike Bloomfield - Don't You Lie To Me
TTITLE4=John Mayall - Lost And Gone
TTITLE5=Johnny Winter - Kind Hearted Woman
TTITLE6=Sonny Terry and Brownie McGhee - Blues For The Lowlands
TTITLE7=Big Joe Williams - Nobody Knows You When Your Down And Out
TTITLE8=Jimmy Witherspoon - C.C. Rider
TTITLE9=Jimmy Reed - Baby What You Want Me To Do
TTITLE10=Albert Collins - Too Many Dirty Dishes
TTITLE11=Otis Rush - I Can't Quit You Baby
TTITLE12=Freddie King - Going Down
TTITLE13=Roy Buchanan - Blues In E
EXTD=
EXTT0=
EXTT1=
EXTT2=
EXTT3=
EXTT4=
EXTT5=
EXTT6=
EXTT7=
EXTT8=
EXTT9=
EXTT10=
EXTT11=
EXTT12=
EXTT13=
PLAYORDER=
